<?xml version="1.0" encoding="UTF-8"?>
<svg version="1.1" xmlns="http://www.w3.org/2000/svg" width="512" height="512">
<path d="M0 0 C7.4154961 4.97236458 14.09483464 11.57524578 19.53515625 18.64453125 C25.55435298 25.86038737 35.43937622 30.19432409 44.5 32 C52.42034973 32.71194155 59.68347759 32.36060928 67.4375 30.5 C82.50439559 26.89219148 98.26200678 28.14126806 111.76953125 36.09375 C124.67428924 45.10308033 131.84119963 57.22567305 134.96484375 72.58203125 C135.45545919 75.71552405 135.82573244 78.84459309 136.15600586 81.99853516 C137.68793451 96.43657846 142.96508742 107.94530143 154.1796875 117.34765625 C159.52713567 121.15568752 165.62220587 123.70317125 171.5859375 126.390625 C179.0709898 129.8926289 184.70314082 134.1201804 190.5 140 C191.08652344 140.57621094 191.67304688 141.15242187 192.27734375 141.74609375 C200.98289222 150.98327877 203.93766078 163.39474135 203.86206055 175.73754883 C203.48699433 187.94616499 199.06920161 197.23375411 193.0847168 207.59130859 C190.02368455 212.91758497 187.57824248 217.89714756 186.5 224 C186.35046875 224.79148438 186.2009375 225.58296875 186.046875 226.3984375 C184.23769153 238.8660714 188.08374602 250.38686705 194.43701172 260.97265625 C202.38915758 274.26884869 205.81807311 288.16219969 202.8046875 303.55078125 C198.34711374 319.48941684 188.92580916 329.89723134 174.83984375 338.23046875 C171.69146308 339.89855816 168.56561841 341.26581866 165.25 342.5625 C153.13804618 347.34983353 144.74354458 356.30814471 139.54296875 368.09375 C137.52861186 373.70678941 136.37741358 379.12526298 135.86816406 385.03710938 C134.47737927 401.11007095 128.92602849 414.53334076 117.1875 425.85546875 C104.62226922 435.88208459 90.1734475 438.29105232 74.5 437 C72.13357329 436.56167899 69.77696815 436.06479151 67.4375 435.5 C53.07456271 432.05355466 40.10321639 433.48273587 27.125 440.8125 C21.43577665 444.60257509 17.11566206 449.47725423 12.55566406 454.5065918 C4.01409132 463.91430916 -6.38916335 472.06333063 -19.59960938 473.17700195 C-36.90625305 473.64958328 -50.59763412 471.37584524 -63.71484375 459.0546875 C-67.5360322 455.33429778 -71.2774513 451.58860935 -74.53515625 447.35546875 C-80.55435298 440.13961263 -90.43937622 435.80567591 -99.5 434 C-107.42034973 433.28805845 -114.68347759 433.63939072 -122.4375 435.5 C-137.50439559 439.10780852 -153.26200678 437.85873194 -166.76953125 429.90625 C-179.67428924 420.89691967 -186.84119963 408.77432695 -189.96484375 393.41796875 C-190.45545919 390.28447595 -190.82573244 387.15540691 -191.15600586 384.00146484 C-192.68793451 369.56342154 -197.96508742 358.05469857 -209.1796875 348.65234375 C-214.49780666 344.86519829 -220.55511851 342.28933931 -226.515625 339.6796875 C-240.94843087 333.0678 -251.00963616 322.15233195 -256.73828125 307.359375 C-260.83490367 294.67034965 -259.40938333 279.61376413 -253.37744141 267.80175781 C-251.65798982 264.63913577 -249.87550281 261.51500057 -248.08691406 258.39111328 C-241.22259916 246.3592515 -239.62721682 234.43764492 -242.0859375 220.734375 C-243.8808946 214.70727134 -246.85414712 209.51990101 -250 204.125 C-257.61775845 191.03633409 -260.74194422 177.44902977 -257.8046875 162.44921875 C-253.34711374 146.51058316 -243.92580916 136.10276866 -229.83984375 127.76953125 C-226.69146308 126.10144184 -223.56561841 124.73418134 -220.25 123.4375 C-208.13804618 118.65016647 -199.74354458 109.69185529 -194.54296875 97.90625 C-192.52861186 92.29321059 -191.37741358 86.87473702 -190.86816406 80.96289062 C-189.47737927 64.88992905 -183.92602849 51.46665924 -172.1875 40.14453125 C-159.62226922 30.11791541 -145.1734475 27.70894768 -129.5 29 C-127.13357329 29.43832101 -124.77696815 29.93520849 -122.4375 30.5 C-108.00683922 33.96269587 -94.99462189 32.51448003 -82 25.0625 C-75.62799976 20.80530503 -70.88131572 15.14897615 -65.82666016 9.46826172 C-48.81396241 -9.36029261 -21.59100413 -12.52584495 0 0 Z " fill="#F24545" transform="translate(283.5,23)"/>
<path d="M0 0 C3.83084349 2.61193874 6.65161815 5.67823629 8.75 9.875 C8.953125 11.828125 8.953125 11.828125 9 14.125 C9.03867187 15.24648437 9.03867187 15.24648437 9.078125 16.390625 C8.08939792 23.87670147 2.50397543 28.56541097 -2.57006836 33.63085938 C-3.41929871 34.49016556 -4.26852905 35.34947174 -5.14349365 36.2348175 C-7.46674764 38.58163457 -9.79659965 40.9214533 -12.13069224 43.25746346 C-13.59267182 44.7215822 -15.05249148 46.18781952 -16.51156807 47.65483093 C-21.61414817 52.78514144 -26.72439553 57.90766777 -31.84204102 63.02294922 C-36.59146936 67.77057941 -41.32395194 72.53464186 -46.04869169 77.30683088 C-50.12133733 81.41889322 -54.20566014 85.51911196 -58.29901606 89.61055803 C-60.73657093 92.04735303 -63.16938424 94.48843358 -65.59049797 96.9415741 C-68.30131957 99.68199381 -71.03074615 102.40251034 -73.76538086 105.11914062 C-74.54974014 105.92035843 -75.33409943 106.72157623 -76.14222717 107.54707336 C-82.49141 113.79127248 -90.39781508 119.58633737 -99.5 120.671875 C-100.7375 120.65640625 -101.975 120.6409375 -103.25 120.625 C-105.10625 120.64820313 -105.10625 120.64820313 -107 120.671875 C-119.76135121 119.05553992 -128.52778924 109.44898318 -137.0390625 100.77734375 C-138.31639547 99.49642589 -139.5948489 98.21662447 -140.87435913 96.93788147 C-143.53423371 94.27334688 -146.1838237 91.59914276 -148.82568359 88.91674805 C-152.20850682 85.48267302 -155.611032 82.06896674 -159.02070045 78.66156673 C-161.65357583 76.02787561 -164.27856189 73.38644022 -166.90095139 70.74231148 C-168.15346684 69.48027228 -169.40778735 68.22002179 -170.6639595 66.96162224 C-172.41337746 65.20569076 -174.15256365 63.44023194 -175.88916016 61.67163086 C-176.4054599 61.15669067 -176.92175964 60.64175049 -177.45370483 60.11120605 C-181.49438931 55.96131737 -183.52144073 52.24717526 -183.625 46.4375 C-183.51169243 41.89008953 -182.25641128 39.36893744 -179.25 35.875 C-175.45888732 32.53521026 -173.0493405 30.72804777 -168 30.625 C-167.25234375 30.59921875 -166.5046875 30.5734375 -165.734375 30.546875 C-159.74878767 31.33742427 -155.82135232 34.93351836 -151.70361328 39.08081055 C-150.92689018 39.85687653 -150.92689018 39.85687653 -150.13447571 40.64862061 C-148.43920458 42.34596752 -146.75478538 44.05366082 -145.0703125 45.76171875 C-143.89127246 46.94635903 -142.71156459 48.13033498 -141.53121948 49.31367493 C-138.4371943 52.41911503 -135.3522875 55.53346025 -132.26922607 58.64978027 C-129.11725877 61.83252077 -125.95670536 65.00670986 -122.796875 68.18164062 C-116.60617301 74.40444759 -110.42508282 80.63669352 -104.25 86.875 C-101.12356525 85.48757897 -99.01119643 83.88073579 -96.60693359 81.45898438 C-95.90042664 80.75233643 -95.19391968 80.04568848 -94.46600342 79.31762695 C-93.70120667 78.54249756 -92.93640991 77.76736816 -92.1484375 76.96875 C-91.33497864 76.15237061 -90.52151978 75.33599121 -89.68341064 74.49487305 C-87.91767896 72.72152992 -86.15426167 70.94588003 -84.3928833 69.16821289 C-81.60694742 66.35678221 -78.81483908 63.55161861 -76.02099609 60.74804688 C-70.09139447 54.79625834 -64.17027192 48.83606673 -58.25 42.875 C-51.39067042 35.96840484 -44.52807376 29.06512269 -37.65704346 22.17016602 C-34.90316263 19.40329547 -32.15536316 16.63047974 -29.40771484 13.85742188 C-27.72262666 12.16506987 -26.03725774 10.47299733 -24.3515625 8.78125 C-23.58676575 8.00612061 -22.82196899 7.23099121 -22.03399658 6.43237305 C-21.32748962 5.7257251 -20.62098267 5.01907715 -19.89306641 4.29101562 C-18.97722275 3.36851013 -18.97722275 3.36851013 -18.0428772 2.42736816 C-12.67859718 -2.21730998 -6.50628727 -2.25217636 0 0 Z " fill="#FEFDFD" transform="translate(351.25,193.125)"/>
</svg>
